<!DOCTYPE svg PUBLIC "-//W3C//DTD SVG 1.1//EN" "http://www.w3.org/Graphics/SVG/1.1/DTD/svg11.dtd">
<!-- Uploaded to: SVG Repo, www.svgrepo.com, Transformed by: SVG Repo Mixer Tools -->
<svg version="1.1" id="Layer_1" xmlns="http://www.w3.org/2000/svg" xmlns:xlink="http://www.w3.org/1999/xlink" viewBox="0 0 448.3 448.3" xml:space="preserve" width="100px" height="100px" fill="#ffffff" stroke="#ffffff" stroke-width="0.004483">
<g id="SVGRepo_bgCarrier" stroke-width="0"/>
<g id="SVGRepo_tracerCarrier" stroke-linecap="round" stroke-linejoin="round"/>
<g id="SVGRepo_iconCarrier"> <path style="fill:#CC9966;" d="M118.95,296.3h-16v16h16V296.3z M78.95,240.3h24v-16h-24V240.3z M346.95,390.7l-8.8-13.6l-24,16 l8.8,13.6L346.95,390.7z M94.95,376.3h16v-16h-16V376.3z M86.95,264.3h-16v16h16V264.3z M134.95,280.3h16v-16h-16V280.3z M342.95,192.3h24v-16h-24V192.3z M422.95,272.3c0,64.8-32,124-85.6,160h-212.8c-53.6-36-85.6-95.2-85.6-160c0-28,6.4-55.2,17.6-80 h270.4v-16H64.55c3.2-5.6,6.4-11.2,10.4-16h312c4,4.8,7.2,10.4,10.4,16h-14.4v16h22.4C416.55,217.1,422.95,244.3,422.95,272.3z M356.55,382.7c66.4-58.4,43.2-163.2,42.4-168l-16,3.2c0,0.8,22.4,100-37.6,152L356.55,382.7z M214.95,280.3v-16h-16v16H214.95z M198.95,376.3v-16h-24v16H198.95z M174.95,240.3v-16h-16v16H174.95z M158.95,336.3v-16h-16v16H158.95z"/> <g> <path style="fill:#FF9900;" d="M287.75,88.3c3.2-28.8,23.2-52,49.6-60.8c-11.2,13.6-23.2,34.4-25.6,60.8H287.75z"/> <path style="fill:#FF9900;" d="M406.95,88.3c-2.4-26.4-14.4-47.2-25.6-60.8c26.4,8.8,46.4,32,49.6,60.8H406.95z"/> </g> <path style="fill:#FF5400;" d="M358.95,27.5c9.6,8.8,28.8,31.2,32,60.8h-64C330.15,58.7,349.35,36.3,358.95,27.5z"/> <g> <path style="fill:#42210B;" d="M398.95,214.7c0.8,4.8,24,109.6-42.4,168l-10.4-12c60-52,37.6-151.2,37.6-152L398.95,214.7z"/> <rect x="342.95" y="176.3" style="fill:#42210B;" width="24" height="16"/> <polygon style="fill:#42210B;" points="338.95,377.9 346.95,390.7 322.95,406.7 314.95,393.9 "/> <rect x="198.95" y="264.3" style="fill:#42210B;" width="16" height="16"/> <rect x="174.95" y="360.3" style="fill:#42210B;" width="24" height="16"/> <rect x="158.95" y="224.3" style="fill:#42210B;" width="16" height="16"/> <rect x="142.95" y="320.3" style="fill:#42210B;" width="16" height="16"/> <rect x="134.95" y="264.3" style="fill:#42210B;" width="16" height="16"/> <rect x="102.95" y="296.3" style="fill:#42210B;" width="16" height="16"/> <rect x="94.95" y="360.3" style="fill:#42210B;" width="16" height="16"/> <rect x="78.95" y="224.3" style="fill:#42210B;" width="24" height="16"/> <rect x="70.95" y="264.3" style="fill:#42210B;" width="16" height="16"/> <path style="fill:#42210B;" d="M336.55,27.5c-26.4,8.8-46.4,32-49.6,60.8h24C313.35,62.7,326.15,41.1,336.55,27.5z M430.15,88.3 c-3.2-28.8-23.2-52-49.6-60.8c11.2,13.6,23.2,34.4,25.6,60.8H430.15z M358.95,8.3c48.8,0,88,39.2,88,88c0,4-4,8-8,8h-72v40h24 c2.4,0,4.8,0.8,6.4,3.2c27.2,36,41.6,79.2,41.6,124.8c0,70.4-36,136-95.2,174.4c-1.6,0.8-2.4,1.6-4,1.6h-217.6 c-1.6,0-3.2-0.8-4-1.6c-60-38.4-95.2-104-95.2-174.4c0-45.6,14.4-88.8,41.6-124.8c1.6-2.4,4-3.2,6.4-3.2h28l-48-122.4l-39.2,32.8 l-10.4-12l48-40c2.4-2.4,4.8-3.2,8-2.4c2.4,0.8,4.8,2.4,5.6,4.8l53.6,139.2h44.8l30.4-75.2c0.8-2.4,3.2-4,5.6-4.8 c2.4-0.8,5.6,0,7.2,2.4l32,32l-11.2,11.2l-23.2-23.2l-23.2,57.6h172v-40h-72c-4,0-8-4-8-8C270.95,47.5,310.15,8.3,358.95,8.3z M397.35,176.3c-3.2-5.6-6.4-11.2-10.4-16h-312c-4,4.8-7.2,10.4-10.4,16h262.4v16H56.55c-11.2,24.8-17.6,52-17.6,80 c0,64.8,32,124,85.6,160h212c54.4-36,86.4-95.2,86.4-160c0-28-6.4-55.2-17.6-80h-22.4v-16H397.35z M358.95,27.5 c-9.6,8.8-28.8,31.2-32,60.8h64C387.75,58.7,368.55,36.3,358.95,27.5z"/> </g> <g> <path style="fill:#B37D4D;" d="M422.95,272.3c0-28-6.4-55.2-17.6-80h-22.4v-16h14.4c-3.2-5.6-6.4-11.2-10.4-16h-44 c0,0,2.4,5.6,5.6,16h18.4v16h-14.4c12.8,59.2,20.8,185.6-129.6,240h114.4C390.95,396.3,422.95,337.1,422.95,272.3z M382.95,217.9 l15.2-3.2c0.8,4,24,109.6-42.4,168l-10.4-12C405.35,317.9,382.95,218.7,382.95,217.9z M314.95,393.9l24-16l8.8,13.6l-24,16 L314.95,393.9z"/> <path style="fill:#B37D4D;" d="M78.95,160.3h-4c-4,4.8-7.2,10.4-10.4,16h9.6C75.75,170.7,77.35,165.1,78.95,160.3z"/> </g> <path style="fill:#E4C6A1;" d="M70.15,192.3h-13.6c-11.2,24.8-17.6,52-17.6,80c0,64.8,32,124,85.6,160h18.4 C45.35,377.9,54.15,261.9,70.15,192.3z"/> </g>
</svg>